<mxfile host="65bd71144e">
    <diagram id="5_-im8t2mX2ByfjSmFnp" name="Page-1">
        <mxGraphModel dx="701" dy="1500" grid="1" gridSize="10" guides="1" tooltips="1" connect="1" arrows="1" fold="1" page="1" pageScale="1" pageWidth="850" pageHeight="1100" math="0" shadow="0">
            <root>
                <mxCell id="0"/>
                <mxCell id="1" parent="0"/>
                <mxCell id="5" value="" style="edgeStyle=none;html=1;sketch=1;" edge="1" parent="1" source="2" target="4">
                    <mxGeometry relative="1" as="geometry"/>
                </mxCell>
                <mxCell id="2" value="storage&lt;br&gt;" style="whiteSpace=wrap;html=1;aspect=fixed;sketch=1;" vertex="1" parent="1">
                    <mxGeometry x="110" y="80" width="80" height="80" as="geometry"/>
                </mxCell>
                <mxCell id="7" value="" style="edgeStyle=none;html=1;sketch=1;" edge="1" parent="1" source="3" target="6">
                    <mxGeometry relative="1" as="geometry"/>
                </mxCell>
                <mxCell id="9" value="" style="edgeStyle=none;html=1;sketch=1;" edge="1" parent="1" source="3" target="8">
                    <mxGeometry relative="1" as="geometry"/>
                </mxCell>
                <mxCell id="11" value="" style="edgeStyle=none;html=1;sketch=1;" edge="1" parent="1" source="3" target="10">
                    <mxGeometry relative="1" as="geometry"/>
                </mxCell>
                <mxCell id="15" value="" style="edgeStyle=none;html=1;sketch=1;" edge="1" parent="1" source="3" target="14">
                    <mxGeometry relative="1" as="geometry"/>
                </mxCell>
                <mxCell id="3" value="compute" style="whiteSpace=wrap;html=1;aspect=fixed;sketch=1;" vertex="1" parent="1">
                    <mxGeometry x="200" y="80" width="80" height="80" as="geometry"/>
                </mxCell>
                <mxCell id="4" value="azure storage gen2" style="ellipse;whiteSpace=wrap;html=1;sketch=1;" vertex="1" parent="1">
                    <mxGeometry x="50" y="-10" width="120" height="60" as="geometry"/>
                </mxCell>
                <mxCell id="6" value="sql server dedicated pool" style="shape=hexagon;perimeter=trapezoidPerimeter;whiteSpace=wrap;html=1;fixedSize=1;sketch=1;" vertex="1" parent="1">
                    <mxGeometry x="440" y="30" width="120" height="80" as="geometry"/>
                </mxCell>
                <mxCell id="8" value="apache spark dedicated pool" style="shape=hexagon;perimeter=trapezoidPerimeter;whiteSpace=wrap;html=1;fixedSize=1;sketch=1;" vertex="1" parent="1">
                    <mxGeometry x="380" y="-70" width="120" height="80" as="geometry"/>
                </mxCell>
                <mxCell id="10" value="dataflows" style="shape=hexagon;perimeter=trapezoidPerimeter;whiteSpace=wrap;html=1;fixedSize=1;sketch=1;" vertex="1" parent="1">
                    <mxGeometry x="220" y="-50" width="120" height="80" as="geometry"/>
                </mxCell>
                <mxCell id="17" value="" style="edgeStyle=none;html=1;sketch=1;" edge="1" parent="1" source="12" target="16">
                    <mxGeometry relative="1" as="geometry"/>
                </mxCell>
                <mxCell id="18" value="" style="edgeStyle=none;html=1;sketch=1;" edge="1" parent="1" source="12" target="16">
                    <mxGeometry relative="1" as="geometry"/>
                </mxCell>
                <mxCell id="19" value="" style="edgeStyle=none;html=1;sketch=1;" edge="1" parent="1" source="12" target="16">
                    <mxGeometry relative="1" as="geometry"/>
                </mxCell>
                <mxCell id="21" value="" style="edgeStyle=none;html=1;sketch=1;" edge="1" parent="1" source="12" target="20">
                    <mxGeometry relative="1" as="geometry"/>
                </mxCell>
                <mxCell id="12" value="ingestion" style="whiteSpace=wrap;html=1;aspect=fixed;sketch=1;" vertex="1" parent="1">
                    <mxGeometry x="110" y="170" width="80" height="80" as="geometry"/>
                </mxCell>
                <mxCell id="13" value="azure storage gen2" style="ellipse;whiteSpace=wrap;html=1;sketch=1;" vertex="1" parent="1">
                    <mxGeometry x="90" y="-10" width="120" height="60" as="geometry"/>
                </mxCell>
                <mxCell id="14" value="serverless sql" style="shape=hexagon;perimeter=trapezoidPerimeter;whiteSpace=wrap;html=1;fixedSize=1;sketch=1;" vertex="1" parent="1">
                    <mxGeometry x="340" y="110" width="120" height="80" as="geometry"/>
                </mxCell>
                <mxCell id="16" value="mapping&lt;br&gt;&amp;nbsp;dataflows" style="shape=step;perimeter=stepPerimeter;whiteSpace=wrap;html=1;fixedSize=1;sketch=1;" vertex="1" parent="1">
                    <mxGeometry x="30" y="270" width="120" height="80" as="geometry"/>
                </mxCell>
                <mxCell id="20" value="pipelines" style="shape=step;perimeter=stepPerimeter;whiteSpace=wrap;html=1;fixedSize=1;sketch=1;" vertex="1" parent="1">
                    <mxGeometry x="170" y="270" width="120" height="80" as="geometry"/>
                </mxCell>
                <mxCell id="25" style="edgeStyle=none;sketch=1;html=1;" edge="1" parent="1" source="22" target="26">
                    <mxGeometry relative="1" as="geometry">
                        <mxPoint x="390" y="270" as="targetPoint"/>
                    </mxGeometry>
                </mxCell>
                <mxCell id="22" value="connected&lt;br&gt;services" style="whiteSpace=wrap;html=1;aspect=fixed;sketch=1;strokeWidth=4;" vertex="1" parent="1">
                    <mxGeometry x="200" y="170" width="80" height="80" as="geometry"/>
                </mxCell>
                <mxCell id="26" value="cosmosDB" style="ellipse;whiteSpace=wrap;html=1;aspect=fixed;sketch=1;strokeWidth=1;" vertex="1" parent="1">
                    <mxGeometry x="385" y="220" width="80" height="80" as="geometry"/>
                </mxCell>
                <mxCell id="27" value="datalake&lt;br&gt;gen2" style="ellipse;whiteSpace=wrap;html=1;aspect=fixed;sketch=1;strokeWidth=1;" vertex="1" parent="1">
                    <mxGeometry x="465" y="220" width="80" height="80" as="geometry"/>
                </mxCell>
                <mxCell id="33" value="" style="group" vertex="1" connectable="0" parent="1">
                    <mxGeometry x="10" y="400" width="210" height="210" as="geometry"/>
                </mxCell>
                <mxCell id="28" value="dedicated sql server pool" style="whiteSpace=wrap;html=1;aspect=fixed;sketch=1;strokeWidth=1;verticalAlign=top;" vertex="1" parent="33">
                    <mxGeometry width="210" height="210" as="geometry"/>
                </mxCell>
                <mxCell id="29" value="control node" style="whiteSpace=wrap;html=1;aspect=fixed;sketch=1;strokeWidth=1;" vertex="1" parent="33">
                    <mxGeometry x="10" y="40" width="70" height="70" as="geometry"/>
                </mxCell>
                <mxCell id="30" value="compute node" style="whiteSpace=wrap;html=1;aspect=fixed;sketch=1;strokeWidth=1;" vertex="1" parent="33">
                    <mxGeometry x="90" y="40" width="70" height="70" as="geometry"/>
                </mxCell>
                <mxCell id="31" value="data movement service" style="whiteSpace=wrap;html=1;aspect=fixed;sketch=1;strokeWidth=1;" vertex="1" parent="33">
                    <mxGeometry x="10" y="120" width="70" height="70" as="geometry"/>
                </mxCell>
                <mxCell id="32" value="distribution strategy" style="whiteSpace=wrap;html=1;aspect=fixed;sketch=1;strokeWidth=5;" vertex="1" parent="33">
                    <mxGeometry x="95" y="120" width="70" height="70" as="geometry"/>
                </mxCell>
            </root>
        </mxGraphModel>
    </diagram>
</mxfile>